<?xml version="1.0" standalone="no"?>
<!DOCTYPE svg PUBLIC "-//W3C//DTD SVG 20010904//EN"
 "http://www.w3.org/TR/2001/REC-SVG-20010904/DTD/svg10.dtd">
<svg version="1.0" xmlns="http://www.w3.org/2000/svg"
 width="512.000000pt" height="512.000000pt" viewBox="0 0 512.000000 512.000000"
 preserveAspectRatio="xMidYMid meet">

<g transform="translate(0.000000,512.000000) scale(0.100000,-0.100000)"
fill="#000000" stroke="none">
<path d="M1351 5110 c-194 -25 -422 -101 -582 -196 -133 -79 -225 -152 -340
-271 -208 -216 -335 -458 -400 -763 -30 -141 -33 -426 -5 -570 106 -550 486
-994 1005 -1174 165 -58 274 -77 471 -83 l175 -6 35 -56 c45 -71 210 -236 281
-281 l56 -35 6 -175 c6 -197 25 -306 83 -471 181 -519 624 -899 1174 -1005
144 -28 429 -25 570 5 321 68 555 195 785 426 231 230 358 463 426 785 19 88
23 136 23 295 0 210 -16 312 -75 490 -148 445 -503 804 -948 959 -165 58 -274
77 -471 83 l-176 6 -34 56 c-45 72 -209 236 -281 281 l-56 34 -6 176 c-6 197
-25 306 -83 471 -178 512 -615 891 -1150 999 -115 24 -369 34 -483 20z m456
-189 c178 -37 325 -98 484 -202 114 -74 301 -259 374 -369 143 -216 220 -448
232 -704 l6 -119 -24 7 c-123 36 -219 48 -362 44 l-148 -5 30 31 c68 71 91
195 54 302 -24 71 -103 147 -176 170 -52 16 -57 20 -57 46 0 67 -33 188 -75
273 -94 193 -265 326 -477 369 -152 31 -285 13 -437 -61 -79 -37 -108 -59
-176 -127 -117 -118 -180 -252 -200 -426 l-6 -56 -49 -17 c-115 -41 -189 -137
-198 -256 -6 -92 16 -156 78 -224 l47 -52 -34 -45 c-118 -153 -160 -358 -112
-548 l20 -82 -62 -70 c-34 -38 -66 -67 -71 -64 -18 11 -110 157 -152 241 -104
208 -140 365 -140 608 0 137 5 190 22 272 59 275 177 491 376 689 223 223 479
350 791 393 107 15 324 6 442 -18z m-166 -325 c211 -45 372 -220 403 -440 l5
-38 -38 6 c-52 8 -186 53 -246 83 -96 48 -145 99 -145 152 0 11 -11 32 -24 47
-18 21 -32 28 -61 28 -47 0 -79 -34 -88 -92 -9 -52 -55 -93 -162 -143 -72 -34
-210 -79 -242 -79 -38 0 6 167 68 259 52 78 116 133 204 176 111 54 208 66
326 41z m-11 -508 c72 -46 212 -101 328 -129 l92 -22 0 -151 c0 -91 -6 -177
-14 -218 -19 -87 -60 -172 -94 -194 -15 -9 -61 -50 -103 -91 -92 -89 -146
-113 -269 -120 -155 -10 -272 33 -386 140 -48 45 -74 80 -104 141 -48 97 -60
167 -60 357 l0 136 58 13 c164 36 342 111 417 174 39 33 41 34 60 16 11 -10
45 -33 75 -52z m656 -229 c25 -48 18 -104 -17 -144 -17 -19 -35 -35 -40 -35
-5 0 -9 54 -9 120 l0 120 26 -16 c14 -9 32 -30 40 -45z m-1436 -64 c0 -107 -1
-115 -18 -106 -52 28 -76 103 -52 161 12 29 44 60 62 60 5 0 8 -52 8 -115z
m195 -593 l75 -80 -38 -7 c-52 -10 -207 -70 -271 -106 -40 -23 -56 -28 -65
-19 -7 7 -11 52 -11 119 0 106 0 108 42 192 23 46 56 101 74 122 l31 38 44
-89 c32 -66 63 -111 119 -170z m1685 194 c167 -35 308 -112 431 -235 167 -168
249 -364 249 -601 0 -237 -82 -433 -249 -601 -123 -123 -264 -200 -431 -235
-78 -16 -244 -18 -325 -3 -280 52 -535 261 -636 524 -50 128 -62 202 -56 350
4 111 9 144 35 225 44 134 109 238 211 341 125 124 275 205 442 238 70 14 258
12 329 -3z m-1106 -423 c-11 -26 -62 -184 -68 -215 -8 -37 -39 -37 -77 1 -28
29 -29 32 -29 130 l0 101 91 0 c83 0 90 -2 83 -17z m-342 -110 c4 -129 14
-160 72 -221 38 -41 91 -69 145 -78 l41 -7 0 -56 c0 -49 25 -188 46 -260 l7
-24 -119 6 c-255 12 -482 86 -692 227 -50 33 -112 79 -138 103 l-48 44 22 30
c31 44 134 137 204 184 111 75 232 124 403 162 54 12 53 15 57 -110z m2588 8
c574 -130 984 -574 1067 -1156 44 -310 -39 -667 -215 -929 l-40 -58 -34 53
c-19 30 -69 86 -111 126 -90 84 -220 153 -337 180 -41 9 -76 18 -78 19 -1 0
17 33 42 73 24 39 52 98 62 130 18 57 21 59 57 65 83 14 167 78 208 159 31 59
37 159 14 228 -25 74 -112 162 -181 182 l-49 14 -8 54 c-34 224 -117 376 -271
494 -103 79 -247 134 -351 135 -22 0 -46 4 -52 8 -7 4 -20 47 -28 94 -8 47
-19 98 -25 113 -5 14 -10 31 -10 37 0 17 239 2 340 -21z m-139 -421 c139 -43
245 -134 310 -265 34 -68 42 -97 51 -183 6 -56 8 -105 4 -109 -14 -15 -117 51
-171 108 -36 40 -61 78 -76 119 -36 99 -94 127 -150 71 -18 -19 -29 -40 -29
-58 0 -61 -49 -105 -157 -139 -113 -36 -120 -33 -76 41 69 115 113 242 138
398 6 36 7 37 49 37 24 0 72 -9 107 -20z m211 -683 c31 -16 78 -34 105 -41
l48 -13 -2 -134 c-1 -108 -5 -147 -23 -199 -72 -215 -261 -352 -485 -352 -205
0 -371 104 -460 287 -18 39 -38 97 -44 129 -13 71 -15 236 -2 236 4 0 39 22
77 50 47 34 80 51 108 54 23 2 84 9 138 15 119 13 241 51 304 94 l47 33 66
-66 c37 -36 91 -78 123 -93z m372 -15 c28 -30 43 -85 32 -125 -6 -24 -52 -77
-67 -77 -5 0 -9 52 -9 115 0 63 4 115 8 115 5 0 21 -13 36 -28z m-1959 -192
c153 -33 359 -23 521 25 20 6 21 2 27 -82 10 -132 51 -253 122 -357 14 -21 25
-39 23 -40 -2 -1 -38 -10 -82 -20 -98 -23 -233 -90 -308 -153 -52 -44 -136
-141 -164 -188 -9 -16 -16 -9 -58 56 -134 209 -216 478 -216 713 0 77 1 78 23
72 12 -4 63 -16 112 -26z m946 -645 c30 -13 86 -32 126 -42 l73 -17 0 -52 0
-52 -94 -18 c-89 -16 -96 -16 -121 0 -14 9 -30 28 -35 42 -10 24 -14 164 -6
164 2 0 28 -11 57 -25z m629 -46 c0 -33 -7 -75 -14 -94 -23 -54 -49 -61 -155
-40 l-91 17 0 52 0 52 73 18 c39 10 95 28 122 40 28 13 53 21 58 19 4 -2 7
-31 7 -64z m-858 -36 c5 -107 19 -145 72 -201 77 -82 183 -100 339 -56 16 5
17 -9 17 -195 l0 -201 -39 0 c-89 0 -272 46 -406 101 l-70 29 0 76 c0 71 -2
77 -28 100 -16 14 -41 24 -58 24 -37 0 -79 -40 -79 -75 l0 -26 -31 18 c-17 10
-64 50 -106 88 l-74 70 30 61 c35 69 129 165 206 210 55 32 168 73 201 74 20
0 22 -6 26 -97z m1148 70 c141 -47 300 -192 326 -296 8 -34 -8 -54 -116 -140
l-75 -60 -7 34 c-18 89 -142 92 -164 3 -4 -14 -4 -49 -2 -79 l5 -55 -71 -29
c-135 -55 -318 -101 -407 -101 l-39 0 0 201 c0 186 1 200 18 195 118 -33 210
-31 277 8 90 53 124 119 132 254 l6 94 36 -7 c19 -4 56 -14 81 -22z"/>
<path d="M2955 2980 c-11 -4 -162 -150 -335 -324 l-314 -315 -67 64 c-58 56
-72 65 -103 65 -48 0 -86 -36 -86 -81 0 -28 16 -48 109 -143 99 -100 113 -110
146 -110 34 0 55 18 401 365 325 326 364 368 364 396 0 58 -65 105 -115 83z"/>
</g>
</svg>
